  0
SECTION
  2
HEADER
  9
$ACADVER
  1
AC1032
  9
$ACADMAINTVER
 90
4
  9
$DWGCODEPAGE
  3
ANSI_1252
  9
$LASTSAVEDBY
  1
ezdxf
  9
$REQUIREDVERSIONS
160
0
  9
$INSBASE
 10
0.0
 20
0.0
 30
0.0
  9
$EXTMIN
 10
1e+20
 20
1e+20
 30
1e+20
  9
$EXTMAX
 10
-1e+20
 20
-1e+20
 30
-1e+20
  9
$LIMMIN
 10
0.0
 20
0.0
  9
$LIMMAX
 10
420.0
 20
297.0
  9
$ORTHOMODE
 70
0
  9
$REGENMODE
 70
1
  9
$FILLMODE
 70
1
  9
$QTEXTMODE
 70
0
  9
$MIRRTEXT
 70
1
  9
$LTSCALE
 40
1.0
  9
$ATTMODE
 70
1
  9
$TEXTSIZE
 40
2.5
  9
$TRACEWID
 40
1.0
  9
$TEXTSTYLE
  7
Standard
  9
$CLAYER
  8
0
  9
$CELTYPE
  6
ByLayer
  9
$CECOLOR
 62
256
  9
$CELTSCALE
 40
1.0
  9
$DISPSILH
 70
0
  9
$DIMSCALE
 40
1.0
  9
$DIMASZ
 40
2.5
  9
$DIMEXO
 40
0.625
  9
$DIMDLI
 40
3.75
  9
$DIMRND
 40
0.0
  9
$DIMDLE
 40
0.0
  9
$DIMEXE
 40
1.25
  9
$DIMTP
 40
0.0
  9
$DIMTM
 40
0.0
  9
$DIMTXT
 40
2.5
  9
$DIMCEN
 40
2.5
  9
$DIMTSZ
 40
0.0
  9
$DIMTOL
 70
0
  9
$DIMLIM
 70
0
  9
$DIMTIH
 70
0
  9
$DIMTOH
 70
0
  9
$DIMSE1
 70
0
  9
$DIMSE2
 70
0
  9
$DIMTAD
 70
1
  9
$DIMZIN
 70
8
  9
$DIMBLK
  1

  9
$DIMASO
 70
1
  9
$DIMSHO
 70
1
  9
$DIMPOST
  1

  9
$DIMAPOST
  1

  9
$DIMALT
 70
0
  9
$DIMALTD
 70
3
  9
$DIMALTF
 40
0.03937007874
  9
$DIMLFAC
 40
1.0
  9
$DIMTOFL
 70
1
  9
$DIMTVP
 40
0.0
  9
$DIMTIX
 70
0
  9
$DIMSOXD
 70
0
  9
$DIMSAH
 70
0
  9
$DIMBLK1
  1

  9
$DIMBLK2
  1

  9
$DIMSTYLE
  2
ISO-25
  9
$DIMCLRD
 70
0
  9
$DIMCLRE
 70
0
  9
$DIMCLRT
 70
0
  9
$DIMTFAC
 40
1.0
  9
$DIMGAP
 40
0.625
  9
$DIMJUST
 70
0
  9
$DIMSD1
 70
0
  9
$DIMSD2
 70
0
  9
$DIMTOLJ
 70
0
  9
$DIMTZIN
 70
8
  9
$DIMALTZ
 70
0
  9
$DIMALTTZ
 70
0
  9
$DIMUPT
 70
0
  9
$DIMDEC
 70
2
  9
$DIMTDEC
 70
2
  9
$DIMALTU
 70
2
  9
$DIMALTTD
 70
3
  9
$DIMTXSTY
  7
Standard
  9
$DIMAUNIT
 70
0
  9
$DIMADEC
 70
0
  9
$DIMALTRND
 40
0.0
  9
$DIMAZIN
 70
0
  9
$DIMDSEP
 70
44
  9
$DIMATFIT
 70
3
  9
$DIMFRAC
 70
0
  9
$DIMLDRBLK
  1

  9
$DIMLUNIT
 70
2
  9
$DIMLWD
 70
-2
  9
$DIMLWE
 70
-2
  9
$DIMTMOVE
 70
0
  9
$DIMFXL
 40
1.0
  9
$DIMFXLON
 70
0
  9
$DIMJOGANG
 40
0.785398163397
  9
$DIMTFILL
 70
0
  9
$DIMTFILLCLR
 70
0
  9
$DIMARCSYM
 70
0
  9
$DIMLTYPE
  6

  9
$DIMLTEX1
  6

  9
$DIMLTEX2
  6

  9
$DIMTXTDIRECTION
 70
0
  9
$LUNITS
 70
2
  9
$LUPREC
 70
4
  9
$SKETCHINC
 40
1.0
  9
$FILLETRAD
 40
10.0
  9
$AUNITS
 70
0
  9
$AUPREC
 70
2
  9
$MENU
  1
.
  9
$ELEVATION
 40
0.0
  9
$PELEVATION
 40
0.0
  9
$THICKNESS
 40
0.0
  9
$LIMCHECK
 70
0
  9
$CHAMFERA
 40
0.0
  9
$CHAMFERB
 40
0.0
  9
$CHAMFERC
 40
0.0
  9
$CHAMFERD
 40
0.0
  9
$SKPOLY
 70
0
  9
$TDCREATE
 40
2461175.407175926
  9
$TDUCREATE
 40
2458532.153996898
  9
$TDUPDATE
 40
2461175.407175926
  9
$TDUUPDATE
 40
2458532.1544311
  9
$TDINDWG
 40
0.0
  9
$TDUSRTIMER
 40
0.0
  9
$USRTIMER
 70
1
  9
$ANGBASE
 50
0.0
  9
$ANGDIR
 70
0
  9
$PDMODE
 70
0
  9
$PDSIZE
 40
0.0
  9
$PLINEWID
 40
0.0
  9
$SPLFRAME
 70
0
  9
$SPLINETYPE
 70
6
  9
$SPLINESEGS
 70
8
  9
$HANDSEED
  5
147
  9
$SURFTAB1
 70
6
  9
$SURFTAB2
 70
6
  9
$SURFTYPE
 70
6
  9
$SURFU
 70
6
  9
$SURFV
 70
6
  9
$UCSBASE
  2

  9
$UCSNAME
  2

  9
$UCSORG
 10
0.0
 20
0.0
 30
0.0
  9
$UCSXDIR
 10
1.0
 20
0.0
 30
0.0
  9
$UCSYDIR
 10
0.0
 20
1.0
 30
0.0
  9
$UCSORTHOREF
  2

  9
$UCSORTHOVIEW
 70
0
  9
$UCSORGTOP
 10
0.0
 20
0.0
 30
0.0
  9
$UCSORGBOTTOM
 10
0.0
 20
0.0
 30
0.0
  9
$UCSORGLEFT
 10
0.0
 20
0.0
 30
0.0
  9
$UCSORGRIGHT
 10
0.0
 20
0.0
 30
0.0
  9
$UCSORGFRONT
 10
0.0
 20
0.0
 30
0.0
  9
$UCSORGBACK
 10
0.0
 20
0.0
 30
0.0
  9
$PUCSBASE
  2

  9
$PUCSNAME
  2

  9
$PUCSORG
 10
0.0
 20
0.0
 30
0.0
  9
$PUCSXDIR
 10
1.0
 20
0.0
 30
0.0
  9
$PUCSYDIR
 10
0.0
 20
1.0
 30
0.0
  9
$PUCSORTHOREF
  2

  9
$PUCSORTHOVIEW
 70
0
  9
$PUCSORGTOP
 10
0.0
 20
0.0
 30
0.0
  9
$PUCSORGBOTTOM
 10
0.0
 20
0.0
 30
0.0
  9
$PUCSORGLEFT
 10
0.0
 20
0.0
 30
0.0
  9
$PUCSORGRIGHT
 10
0.0
 20
0.0
 30
0.0
  9
$PUCSORGFRONT
 10
0.0
 20
0.0
 30
0.0
  9
$PUCSORGBACK
 10
0.0
 20
0.0
 30
0.0
  9
$USERI1
 70
0
  9
$USERI2
 70
0
  9
$USERI3
 70
0
  9
$USERI4
 70
0
  9
$USERI5
 70
0
  9
$USERR1
 40
0.0
  9
$USERR2
 40
0.0
  9
$USERR3
 40
0.0
  9
$USERR4
 40
0.0
  9
$USERR5
 40
0.0
  9
$WORLDVIEW
 70
1
  9
$SHADEDGE
 70
3
  9
$SHADEDIF
 70
70
  9
$TILEMODE
 70
1
  9
$MAXACTVP
 70
64
  9
$PINSBASE
 10
0.0
 20
0.0
 30
0.0
  9
$PLIMCHECK
 70
0
  9
$PEXTMIN
 10
1e+20
 20
1e+20
 30
1e+20
  9
$PEXTMAX
 10
-1e+20
 20
-1e+20
 30
-1e+20
  9
$PLIMMIN
 10
0.0
 20
0.0
  9
$PLIMMAX
 10
420.0
 20
297.0
  9
$UNITMODE
 70
0
  9
$VISRETAIN
 70
1
  9
$PLINEGEN
 70
0
  9
$PSLTSCALE
 70
1
  9
$TREEDEPTH
 70
3020
  9
$CMLSTYLE
  2
Standard
  9
$CMLJUST
 70
0
  9
$CMLSCALE
 40
20.0
  9
$PROXYGRAPHICS
 70
1
  9
$MEASUREMENT
 70
1
  9
$CELWEIGHT
370
-1
  9
$ENDCAPS
280
0
  9
$JOINSTYLE
280
0
  9
$LWDISPLAY
290
0
  9
$INSUNITS
 70
6
  9
$HYPERLINKBASE
  1

  9
$STYLESHEET
  1

  9
$XEDIT
290
1
  9
$CEPSNTYPE
380
0
  9
$PSTYLEMODE
290
1
  9
$FINGERPRINTGUID
  2
{721D9F0A-F9BA-4E85-8197-CAB84EA02226}
  9
$VERSIONGUID
  2
{0D0AA664-78DB-48BB-8EA5-E1A1A65CB3A6}
  9
$EXTNAMES
290
1
  9
$PSVPSCALE
 40
0.0
  9
$OLESTARTUP
290
0
  9
$SORTENTS
280
127
  9
$INDEXCTL
280
0
  9
$HIDETEXT
280
1
  9
$XCLIPFRAME
280
1
  9
$HALOGAP
280
0
  9
$OBSCOLOR
 70
257
  9
$OBSLTYPE
280
0
  9
$INTERSECTIONDISPLAY
280
0
  9
$INTERSECTIONCOLOR
 70
257
  9
$DIMASSOC
280
2
  9
$PROJECTNAME
  1

  9
$CAMERADISPLAY
290
0
  9
$LENSLENGTH
 40
50.0
  9
$CAMERAHEIGHT
 40
0.0
  9
$STEPSPERSEC
 40
24.0
  9
$STEPSIZE
 40
100.0
  9
$3DDWFPREC
 40
2.0
  9
$PSOLWIDTH
 40
0.005
  9
$PSOLHEIGHT
 40
0.08
  9
$LOFTANG1
 40
1.570796326795
  9
$LOFTANG2
 40
1.570796326795
  9
$LOFTMAG1
 40
0.0
  9
$LOFTMAG2
 40
0.0
  9
$LOFTPARAM
 70
7
  9
$LOFTNORMALS
280
1
  9
$LATITUDE
 40
37.795
  9
$LONGITUDE
 40
-122.394
  9
$NORTHDIRECTION
 40
0.0
  9
$TIMEZONE
 70
-8000
  9
$LIGHTGLYPHDISPLAY
280
1
  9
$TILEMODELIGHTSYNCH
280
1
  9
$CMATERIAL
347
20
  9
$SOLIDHIST
280
0
  9
$SHOWHIST
280
1
  9
$DWFFRAME
280
2
  9
$DGNFRAME
280
2
  9
$REALWORLDSCALE
290
1
  9
$INTERFERECOLOR
 62
256
  9
$CSHADOW
280
0
  9
$SHADOWPLANELOCATION
 40
0.0
  0
ENDSEC
  0
SECTION
  2
CLASSES
  0
CLASS
  1
ACDBDICTIONARYWDFLT
  2
AcDbDictionaryWithDefault
  3
ObjectDBX Classes
 90
0
 91
0
280
0
281
0
  0
CLASS
  1
SUN
  2
AcDbSun
  3
SCENEOE
 90
1153
 91
0
280
0
281
0
  0
CLASS
  1
VISUALSTYLE
  2
AcDbVisualStyle
  3
ObjectDBX Classes
 90
4095
 91
0
280
0
281
0
  0
CLASS
  1
MATERIAL
  2
AcDbMaterial
  3
ObjectDBX Classes
 90
1153
 91
0
280
0
281
0
  0
CLASS
  1
SCALE
  2
AcDbScale
  3
ObjectDBX Classes
 90
1153
 91
0
280
0
281
0
  0
CLASS
  1
TABLESTYLE
  2
AcDbTableStyle
  3
ObjectDBX Classes
 90
4095
 91
0
280
0
281
0
  0
CLASS
  1
MLEADERSTYLE
  2
AcDbMLeaderStyle
  3
ACDB_MLEADERSTYLE_CLASS
 90
4095
 91
0
280
0
281
0
  0
CLASS
  1
DICTIONARYVAR
  2
AcDbDictionaryVar
  3
ObjectDBX Classes
 90
0
 91
0
280
0
281
0
  0
CLASS
  1
CELLSTYLEMAP
  2
AcDbCellStyleMap
  3
ObjectDBX Classes
 90
1152
 91
0
280
0
281
0
  0
CLASS
  1
MENTALRAYRENDERSETTINGS
  2
AcDbMentalRayRenderSettings
  3
SCENEOE
 90
1024
 91
0
280
0
281
0
  0
CLASS
  1
ACDBDETAILVIEWSTYLE
  2
AcDbDetailViewStyle
  3
ObjectDBX Classes
 90
1025
 91
0
280
0
281
0
  0
CLASS
  1
ACDBSECTIONVIEWSTYLE
  2
AcDbSectionViewStyle
  3
ObjectDBX Classes
 90
1025
 91
0
280
0
281
0
  0
CLASS
  1
RASTERVARIABLES
  2
AcDbRasterVariables
  3
ISM
 90
0
 91
0
280
0
281
0
  0
CLASS
  1
ACDBPLACEHOLDER
  2
AcDbPlaceHolder
  3
ObjectDBX Classes
 90
0
 91
0
280
0
281
0
  0
CLASS
  1
LAYOUT
  2
AcDbLayout
  3
ObjectDBX Classes
 90
0
 91
0
280
0
281
0
  0
ENDSEC
  0
SECTION
  2
TABLES
  0
TABLE
  2
VPORT
  5
8
330
0
100
AcDbSymbolTable
 70
1
  0
VPORT
  5
23
330
8
100
AcDbSymbolTableRecord
100
AcDbViewportTableRecord
  2
*Active
 70
0
 10
0.0
 20
0.0
 11
1.0
 21
1.0
 12
0.0
 22
0.0
 13
0.0
 23
0.0
 14
0.5
 24
0.5
 15
0.5
 25
0.5
 16
0.0
 26
0.0
 36
1.0
 17
0.0
 27
0.0
 37
0.0
 40
1000.0
 41
1.34
 42
50.0
 43
0.0
 44
0.0
 50
0.0
 51
0.0
 71
0
 72
1000
 73
1
 74
3
 75
0
 76
0
 77
0
 78
0
281
0
 65
0
146
0.0
  0
ENDTAB
  0
TABLE
  2
LTYPE
  5
2
330
0
100
AcDbSymbolTable
 70
3
  0
LTYPE
  5
24
330
2
100
AcDbSymbolTableRecord
100
AcDbLinetypeTableRecord
  2
ByBlock
 70
0
  3

 72
65
 73
0
 40
0.0
  0
LTYPE
  5
25
330
2
100
AcDbSymbolTableRecord
100
AcDbLinetypeTableRecord
  2
ByLayer
 70
0
  3

 72
65
 73
0
 40
0.0
  0
LTYPE
  5
26
330
2
100
AcDbSymbolTableRecord
100
AcDbLinetypeTableRecord
  2
Continuous
 70
0
  3

 72
65
 73
0
 40
0.0
  0
ENDTAB
  0
TABLE
  2
LAYER
  5
1
330
0
100
AcDbSymbolTable
 70
15
  0
LAYER
  5
27
330
1
100
AcDbSymbolTableRecord
100
AcDbLayerTableRecord
  2
0
 70
0
 62
7
  6
Continuous
370
-3
390
13
347
21
  0
LAYER
  5
28
330
1
100
AcDbSymbolTableRecord
100
AcDbLayerTableRecord
  2
Defpoints
 70
0
 62
7
  6
Continuous
290
0
370
-3
390
13
347
21
  0
LAYER
  5
2F
330
1
100
AcDbSymbolTableRecord
100
AcDbLayerTableRecord
  2
ROAD
 70
0
 62
7
  6
Continuous
370
-3
390
13
347
21
  0
LAYER
  5
30
330
1
100
AcDbSymbolTableRecord
100
AcDbLayerTableRecord
  2
POLE_HV
 70
0
 62
1
  6
Continuous
370
-3
390
13
347
21
  0
LAYER
  5
31
330
1
100
AcDbSymbolTableRecord
100
AcDbLayerTableRecord
  2
POLE_LV
 70
0
 62
3
  6
Continuous
370
-3
390
13
347
21
  0
LAYER
  5
32
330
1
100
AcDbSymbolTableRecord
100
AcDbLayerTableRecord
  2
LINE_HV
 70
0
 62
1
  6
Continuous
370
-3
390
13
347
21
  0
LAYER
  5
33
330
1
100
AcDbSymbolTableRecord
100
AcDbLayerTableRecord
  2
LINE_LV
 70
0
 62
3
  6
Continuous
370
-3
390
13
347
21
  0
LAYER
  5
34
330
1
100
AcDbSymbolTableRecord
100
AcDbLayerTableRecord
  2
LINE_SVC
 70
0
 62
4
  6
Continuous
370
-3
390
13
347
21
  0
LAYER
  5
35
330
1
100
AcDbSymbolTableRecord
100
AcDbLayerTableRecord
  2
MANHOLE
 70
0
 62
5
  6
Continuous
370
-3
390
13
347
21
  0
LAYER
  5
36
330
1
100
AcDbSymbolTableRecord
100
AcDbLayerTableRecord
  2
BUILDING
 70
0
 62
2
  6
Continuous
370
-3
390
13
347
21
  0
LAYER
  5
37
330
1
100
AcDbSymbolTableRecord
100
AcDbLayerTableRecord
  2
TRANSFORMER
 70
0
 62
6
  6
Continuous
370
-3
390
13
347
21
  0
LAYER
  5
38
330
1
100
AcDbSymbolTableRecord
100
AcDbLayerTableRecord
  2
DIMENSION
 70
0
 62
7
  6
Continuous
370
-3
390
13
347
21
  0
LAYER
  5
39
330
1
100
AcDbSymbolTableRecord
100
AcDbLayerTableRecord
  2
TEXT
 70
0
 62
7
  6
Continuous
370
-3
390
13
347
21
  0
LAYER
  5
3A
330
1
100
AcDbSymbolTableRecord
100
AcDbLayerTableRecord
  2
BORDER
 70
0
 62
7
  6
Continuous
370
-3
390
13
347
21
  0
LAYER
  5
3B
330
1
100
AcDbSymbolTableRecord
100
AcDbLayerTableRecord
  2
HATCH
 70
0
 62
8
  6
Continuous
370
-3
390
13
347
21
  0
ENDTAB
  0
TABLE
  2
STYLE
  5
5
330
0
100
AcDbSymbolTable
 70
3
  0
STYLE
  5
29
330
5
100
AcDbSymbolTableRecord
100
AcDbTextStyleTableRecord
  2
Standard
 70
0
 40
0.0
 41
1.0
 50
0.0
 71
0
 42
2.5
  3
txt
  4

  0
STYLE
  5
3C
330
5
100
AcDbSymbolTableRecord
100
AcDbTextStyleTableRecord
  2
TH
 70
0
 40
0.0
 41
1.0
 50
0.0
 71
0
 42
2.5
  3
Arial.ttf
  4

  0
STYLE
  5
3D
330
5
100
AcDbSymbolTableRecord
100
AcDbTextStyleTableRecord
  2
TN
 70
0
 40
0.0
 41
1.0
 50
0.0
 71
0
 42
2.5
  3
Arial.ttf
  4

  0
ENDTAB
  0
TABLE
  2
VIEW
  5
7
330
0
100
AcDbSymbolTable
 70
0
  0
ENDTAB
  0
TABLE
  2
UCS
  5
6
330
0
100
AcDbSymbolTable
 70
0
  0
ENDTAB
  0
TABLE
  2
APPID
  5
3
330
0
100
AcDbSymbolTable
 70
3
  0
APPID
  5
2A
330
3
100
AcDbSymbolTableRecord
100
AcDbRegAppTableRecord
  2
ACAD
 70
0
  0
APPID
  5
144
330
3
100
AcDbSymbolTableRecord
100
AcDbRegAppTableRecord
  2
HATCHBACKGROUNDCOLOR
 70
0
  0
APPID
  5
145
330
3
100
AcDbSymbolTableRecord
100
AcDbRegAppTableRecord
  2
EZDXF
 70
0
  0
ENDTAB
  0
TABLE
  2
DIMSTYLE
  5
4
330
0
100
AcDbSymbolTable
 70
1
100
AcDbDimStyleTable
  0
DIMSTYLE
105
2B
330
4
100
AcDbSymbolTableRecord
100
AcDbDimStyleTableRecord
  2
Standard
 70
0
 40
1.0
 41
2.5
 42
0.625
 43
3.75
 44
1.25
 45
0.0
 46
0.0
 47
0.0
 48
0.0
 49
2.5
140
2.5
141
2.5
142
0.0
143
0.03937007874
144
1.0
145
0.0
146
1.0
147
0.625
148
0.0
 69
0
 70
0
 71
0
 72
0
 73
0
 74
0
 75
0
 76
0
 77
1
 78
8
 79
3
170
0
171
3
172
1
173
0
174
0
175
0
176
0
177
0
178
0
179
2
271
2
272
2
273
2
274
3
275
0
276
0
277
2
278
44
279
0
280
0
281
0
282
0
283
0
284
8
285
0
286
0
288
0
289
3
290
0
371
-2
372
-2
  0
ENDTAB
  0
TABLE
  2
BLOCK_RECORD
  5
9
330
0
100
AcDbSymbolTable
 70
2
  0
BLOCK_RECORD
  5
17
330
9
100
AcDbSymbolTableRecord
100
AcDbBlockTableRecord
  2
*Model_Space
340
1A
 70
0
280
1
281
0
  0
BLOCK_RECORD
  5
1B
330
9
100
AcDbSymbolTableRecord
100
AcDbBlockTableRecord
  2
*Paper_Space
340
1E
 70
0
280
1
281
0
  0
ENDTAB
  0
ENDSEC
  0
SECTION
  2
BLOCKS
  0
BLOCK
  5
18
330
17
100
AcDbEntity
  8
0
100
AcDbBlockBegin
  2
*Model_Space
 70
0
 10
0.0
 20
0.0
 30
0.0
  3
*Model_Space
  1

  0
ENDBLK
  5
19
330
17
100
AcDbEntity
  8
0
100
AcDbBlockEnd
  0
BLOCK
  5
1C
330
1B
100
AcDbEntity
  8
0
100
AcDbBlockBegin
  2
*Paper_Space
 70
0
 10
0.0
 20
0.0
 30
0.0
  3
*Paper_Space
  1

  0
ENDBLK
  5
1D
330
1B
100
AcDbEntity
  8
0
100
AcDbBlockEnd
  0
ENDSEC
  0
SECTION
  2
ENTITIES
  0
LINE
  5
3E
330
17
100
AcDbEntity
  8
ROAD
370
50
100
AcDbLine
 10
-10.0
 20
0.0
 30
0.0
 11
370.0
 21
0.0
 31
0.0
  0
LINE
  5
3F
330
17
100
AcDbEntity
  8
ROAD
370
50
100
AcDbLine
 10
-10.0
 20
8.0
 30
0.0
 11
370.0
 21
8.0
 31
0.0
  0
TEXT
  5
40
330
17
100
AcDbEntity
  8
TEXT
100
AcDbText
 10
150.0
 20
3.5
 30
0.0
 40
0.7
  1
ทางชนบท 2 (กว้าง 8.00 ม.)
  7
TN
100
AcDbText
  0
LINE
  5
41
330
17
100
AcDbEntity
  8
ROAD
  6
CENTER
370
18
100
AcDbLine
 10
-10.0
 20
4.0
 30
0.0
 11
370.0
 21
4.0
 31
0.0
  0
LWPOLYLINE
  5
42
330
17
100
AcDbEntity
  8
BUILDING
370
40
100
AcDbPolyline
 90
4
 70
1
 10
20.0
 20
18.0
 10
28.0
 20
18.0
 10
28.0
 20
24.0
 10
20.0
 20
24.0
  0
TEXT
  5
43
330
17
100
AcDbEntity
  8
TEXT
100
AcDbText
 10
20.5
 20
19.5
 30
0.0
 40
0.45
  1
บ้าน
  7
TN
100
AcDbText
  0
LWPOLYLINE
  5
44
330
17
100
AcDbEntity
  8
BUILDING
370
40
100
AcDbPolyline
 90
4
 70
1
 10
70.0
 20
18.0
 10
78.0
 20
18.0
 10
78.0
 20
24.0
 10
70.0
 20
24.0
  0
TEXT
  5
45
330
17
100
AcDbEntity
  8
TEXT
100
AcDbText
 10
70.5
 20
19.5
 30
0.0
 40
0.45
  1
บ้าน
  7
TN
100
AcDbText
  0
LWPOLYLINE
  5
46
330
17
100
AcDbEntity
  8
BUILDING
370
40
100
AcDbPolyline
 90
4
 70
1
 10
115.0
 20
18.0
 10
123.0
 20
18.0
 10
123.0
 20
24.0
 10
115.0
 20
24.0
  0
TEXT
  5
47
330
17
100
AcDbEntity
  8
TEXT
100
AcDbText
 10
115.5
 20
19.5
 30
0.0
 40
0.45
  1
บ้าน
  7
TN
100
AcDbText
  0
LWPOLYLINE
  5
48
330
17
100
AcDbEntity
  8
BUILDING
370
40
100
AcDbPolyline
 90
4
 70
1
 10
165.0
 20
18.0
 10
173.0
 20
18.0
 10
173.0
 20
24.0
 10
165.0
 20
24.0
  0
TEXT
  5
49
330
17
100
AcDbEntity
  8
TEXT
100
AcDbText
 10
165.5
 20
19.5
 30
0.0
 40
0.45
  1
บ้าน
  7
TN
100
AcDbText
  0
LWPOLYLINE
  5
4A
330
17
100
AcDbEntity
  8
BUILDING
370
40
100
AcDbPolyline
 90
4
 70
1
 10
215.0
 20
18.0
 10
223.0
 20
18.0
 10
223.0
 20
24.0
 10
215.0
 20
24.0
  0
TEXT
  5
4B
330
17
100
AcDbEntity
  8
TEXT
100
AcDbText
 10
215.5
 20
19.5
 30
0.0
 40
0.45
  1
บ้าน
  7
TN
100
AcDbText
  0
LWPOLYLINE
  5
4C
330
17
100
AcDbEntity
  8
BUILDING
370
40
100
AcDbPolyline
 90
4
 70
1
 10
265.0
 20
18.0
 10
273.0
 20
18.0
 10
273.0
 20
24.0
 10
265.0
 20
24.0
  0
TEXT
  5
4D
330
17
100
AcDbEntity
  8
TEXT
100
AcDbText
 10
265.5
 20
19.5
 30
0.0
 40
0.45
  1
บ้าน
  7
TN
100
AcDbText
  0
LWPOLYLINE
  5
4E
330
17
100
AcDbEntity
  8
BUILDING
370
40
100
AcDbPolyline
 90
4
 70
1
 10
310.0
 20
18.0
 10
318.0
 20
18.0
 10
318.0
 20
24.0
 10
310.0
 20
24.0
  0
TEXT
  5
4F
330
17
100
AcDbEntity
  8
TEXT
100
AcDbText
 10
310.5
 20
19.5
 30
0.0
 40
0.45
  1
บ้าน
  7
TN
100
AcDbText
  0
LWPOLYLINE
  5
50
330
17
100
AcDbEntity
  8
BUILDING
370
40
100
AcDbPolyline
 90
4
 70
1
 10
20.0
 20
-14.0
 10
28.0
 20
-14.0
 10
28.0
 20
-8.0
 10
20.0
 20
-8.0
  0
TEXT
  5
51
330
17
100
AcDbEntity
  8
TEXT
100
AcDbText
 10
20.5
 20
-12.0
 30
0.0
 40
0.45
  1
บ้าน
  7
TN
100
AcDbText
  0
LWPOLYLINE
  5
52
330
17
100
AcDbEntity
  8
BUILDING
370
40
100
AcDbPolyline
 90
4
 70
1
 10
70.0
 20
-14.0
 10
78.0
 20
-14.0
 10
78.0
 20
-8.0
 10
70.0
 20
-8.0
  0
TEXT
  5
53
330
17
100
AcDbEntity
  8
TEXT
100
AcDbText
 10
70.5
 20
-12.0
 30
0.0
 40
0.45
  1
บ้าน
  7
TN
100
AcDbText
  0
LWPOLYLINE
  5
54
330
17
100
AcDbEntity
  8
BUILDING
370
40
100
AcDbPolyline
 90
4
 70
1
 10
115.0
 20
-14.0
 10
123.0
 20
-14.0
 10
123.0
 20
-8.0
 10
115.0
 20
-8.0
  0
TEXT
  5
55
330
17
100
AcDbEntity
  8
TEXT
100
AcDbText
 10
115.5
 20
-12.0
 30
0.0
 40
0.45
  1
บ้าน
  7
TN
100
AcDbText
  0
LWPOLYLINE
  5
56
330
17
100
AcDbEntity
  8
BUILDING
370
40
100
AcDbPolyline
 90
4
 70
1
 10
165.0
 20
-14.0
 10
173.0
 20
-14.0
 10
173.0
 20
-8.0
 10
165.0
 20
-8.0
  0
TEXT
  5
57
330
17
100
AcDbEntity
  8
TEXT
100
AcDbText
 10
165.5
 20
-12.0
 30
0.0
 40
0.45
  1
บ้าน
  7
TN
100
AcDbText
  0
LWPOLYLINE
  5
58
330
17
100
AcDbEntity
  8
BUILDING
370
40
100
AcDbPolyline
 90
4
 70
1
 10
215.0
 20
-14.0
 10
223.0
 20
-14.0
 10
223.0
 20
-8.0
 10
215.0
 20
-8.0
  0
TEXT
  5
59
330
17
100
AcDbEntity
  8
TEXT
100
AcDbText
 10
215.5
 20
-12.0
 30
0.0
 40
0.45
  1
บ้าน
  7
TN
100
AcDbText
  0
LWPOLYLINE
  5
5A
330
17
100
AcDbEntity
  8
BUILDING
370
40
100
AcDbPolyline
 90
4
 70
1
 10
265.0
 20
-14.0
 10
273.0
 20
-14.0
 10
273.0
 20
-8.0
 10
265.0
 20
-8.0
  0
TEXT
  5
5B
330
17
100
AcDbEntity
  8
TEXT
100
AcDbText
 10
265.5
 20
-12.0
 30
0.0
 40
0.45
  1
บ้าน
  7
TN
100
AcDbText
  0
LWPOLYLINE
  5
5C
330
17
100
AcDbEntity
  8
BUILDING
370
40
100
AcDbPolyline
 90
4
 70
1
 10
310.0
 20
-14.0
 10
318.0
 20
-14.0
 10
318.0
 20
-8.0
 10
310.0
 20
-8.0
  0
TEXT
  5
5D
330
17
100
AcDbEntity
  8
TEXT
100
AcDbText
 10
310.5
 20
-12.0
 30
0.0
 40
0.45
  1
บ้าน
  7
TN
100
AcDbText
  0
LWPOLYLINE
  5
5E
330
17
100
AcDbEntity
  8
BUILDING
 62
6
370
60
100
AcDbPolyline
 90
4
 70
1
 10
310.0
 20
18.0
 10
355.0
 20
18.0
 10
355.0
 20
30.0
 10
310.0
 20
30.0
  0
TEXT
  5
5F
330
17
100
AcDbEntity
  8
TEXT
100
AcDbText
 10
316.0
 20
23.0
 30
0.0
 40
0.6
  1
ส่วนกลาง(อาคารรวม)
  7
TN
100
AcDbText
  0
LWPOLYLINE
  5
60
330
17
100
AcDbEntity
  8
MANHOLE
370
30
100
AcDbPolyline
 90
4
 70
1
 10
-0.6
 20
8.9
 10
0.6
 20
8.9
 10
0.6
 20
10.1
 10
-0.6
 20
10.1
  0
LINE
  5
61
330
17
100
AcDbEntity
  8
MANHOLE
100
AcDbLine
 10
-0.6
 20
8.9
 30
0.0
 11
0.6
 21
10.1
 31
0.0
  0
LINE
  5
62
330
17
100
AcDbEntity
  8
MANHOLE
100
AcDbLine
 10
0.6
 20
8.9
 30
0.0
 11
-0.6
 21
10.1
 31
0.0
  0
LWPOLYLINE
  5
63
330
17
100
AcDbEntity
  8
MANHOLE
370
30
100
AcDbPolyline
 90
4
 70
1
 10
-0.6
 20
-2.1
 10
0.6
 20
-2.1
 10
0.6
 20
-0.9
 10
-0.6
 20
-0.9
  0
LINE
  5
64
330
17
100
AcDbEntity
  8
MANHOLE
100
AcDbLine
 10
-0.6
 20
-2.1
 30
0.0
 11
0.6
 21
-0.9
 31
0.0
  0
LINE
  5
65
330
17
100
AcDbEntity
  8
MANHOLE
100
AcDbLine
 10
0.6
 20
-2.1
 30
0.0
 11
-0.6
 21
-0.9
 31
0.0
  0
LWPOLYLINE
  5
66
330
17
100
AcDbEntity
  8
MANHOLE
370
30
100
AcDbPolyline
 90
4
 70
1
 10
44.4
 20
8.9
 10
45.6
 20
8.9
 10
45.6
 20
10.1
 10
44.4
 20
10.1
  0
LINE
  5
67
330
17
100
AcDbEntity
  8
MANHOLE
100
AcDbLine
 10
44.4
 20
8.9
 30
0.0
 11
45.6
 21
10.1
 31
0.0
  0
LINE
  5
68
330
17
100
AcDbEntity
  8
MANHOLE
100
AcDbLine
 10
45.6
 20
8.9
 30
0.0
 11
44.4
 21
10.1
 31
0.0
  0
LWPOLYLINE
  5
69
330
17
100
AcDbEntity
  8
MANHOLE
370
30
100
AcDbPolyline
 90
4
 70
1
 10
44.4
 20
-2.1
 10
45.6
 20
-2.1
 10
45.6
 20
-0.9
 10
44.4
 20
-0.9
  0
LINE
  5
6A
330
17
100
AcDbEntity
  8
MANHOLE
100
AcDbLine
 10
44.4
 20
-2.1
 30
0.0
 11
45.6
 21
-0.9
 31
0.0
  0
LINE
  5
6B
330
17
100
AcDbEntity
  8
MANHOLE
100
AcDbLine
 10
45.6
 20
-2.1
 30
0.0
 11
44.4
 21
-0.9
 31
0.0
  0
LWPOLYLINE
  5
6C
330
17
100
AcDbEntity
  8
MANHOLE
370
30
100
AcDbPolyline
 90
4
 70
1
 10
89.4
 20
8.9
 10
90.6
 20
8.9
 10
90.6
 20
10.1
 10
89.4
 20
10.1
  0
LINE
  5
6D
330
17
100
AcDbEntity
  8
MANHOLE
100
AcDbLine
 10
89.4
 20
8.9
 30
0.0
 11
90.6
 21
10.1
 31
0.0
  0
LINE
  5
6E
330
17
100
AcDbEntity
  8
MANHOLE
100
AcDbLine
 10
90.6
 20
8.9
 30
0.0
 11
89.4
 21
10.1
 31
0.0
  0
LWPOLYLINE
  5
6F
330
17
100
AcDbEntity
  8
MANHOLE
370
30
100
AcDbPolyline
 90
4
 70
1
 10
89.4
 20
-2.1
 10
90.6
 20
-2.1
 10
90.6
 20
-0.9
 10
89.4
 20
-0.9
  0
LINE
  5
70
330
17
100
AcDbEntity
  8
MANHOLE
100
AcDbLine
 10
89.4
 20
-2.1
 30
0.0
 11
90.6
 21
-0.9
 31
0.0
  0
LINE
  5
71
330
17
100
AcDbEntity
  8
MANHOLE
100
AcDbLine
 10
90.6
 20
-2.1
 30
0.0
 11
89.4
 21
-0.9
 31
0.0
  0
LWPOLYLINE
  5
72
330
17
100
AcDbEntity
  8
MANHOLE
370
30
100
AcDbPolyline
 90
4
 70
1
 10
134.4
 20
8.9
 10
135.6
 20
8.9
 10
135.6
 20
10.1
 10
134.4
 20
10.1
  0
LINE
  5
73
330
17
100
AcDbEntity
  8
MANHOLE
100
AcDbLine
 10
134.4
 20
8.9
 30
0.0
 11
135.6
 21
10.1
 31
0.0
  0
LINE
  5
74
330
17
100
AcDbEntity
  8
MANHOLE
100
AcDbLine
 10
135.6
 20
8.9
 30
0.0
 11
134.4
 21
10.1
 31
0.0
  0
LWPOLYLINE
  5
75
330
17
100
AcDbEntity
  8
MANHOLE
370
30
100
AcDbPolyline
 90
4
 70
1
 10
134.4
 20
-2.1
 10
135.6
 20
-2.1
 10
135.6
 20
-0.9
 10
134.4
 20
-0.9
  0
LINE
  5
76
330
17
100
AcDbEntity
  8
MANHOLE
100
AcDbLine
 10
134.4
 20
-2.1
 30
0.0
 11
135.6
 21
-0.9
 31
0.0
  0
LINE
  5
77
330
17
100
AcDbEntity
  8
MANHOLE
100
AcDbLine
 10
135.6
 20
-2.1
 30
0.0
 11
134.4
 21
-0.9
 31
0.0
  0
LWPOLYLINE
  5
78
330
17
100
AcDbEntity
  8
MANHOLE
370
30
100
AcDbPolyline
 90
4
 70
1
 10
179.4
 20
8.9
 10
180.6
 20
8.9
 10
180.6
 20
10.1
 10
179.4
 20
10.1
  0
LINE
  5
79
330
17
100
AcDbEntity
  8
MANHOLE
100
AcDbLine
 10
179.4
 20
8.9
 30
0.0
 11
180.6
 21
10.1
 31
0.0
  0
LINE
  5
7A
330
17
100
AcDbEntity
  8
MANHOLE
100
AcDbLine
 10
180.6
 20
8.9
 30
0.0
 11
179.4
 21
10.1
 31
0.0
  0
LWPOLYLINE
  5
7B
330
17
100
AcDbEntity
  8
MANHOLE
370
30
100
AcDbPolyline
 90
4
 70
1
 10
179.4
 20
-2.1
 10
180.6
 20
-2.1
 10
180.6
 20
-0.9
 10
179.4
 20
-0.9
  0
LINE
  5
7C
330
17
100
AcDbEntity
  8
MANHOLE
100
AcDbLine
 10
179.4
 20
-2.1
 30
0.0
 11
180.6
 21
-0.9
 31
0.0
  0
LINE
  5
7D
330
17
100
AcDbEntity
  8
MANHOLE
100
AcDbLine
 10
180.6
 20
-2.1
 30
0.0
 11
179.4
 21
-0.9
 31
0.0
  0
LWPOLYLINE
  5
7E
330
17
100
AcDbEntity
  8
MANHOLE
370
30
100
AcDbPolyline
 90
4
 70
1
 10
224.4
 20
8.9
 10
225.6
 20
8.9
 10
225.6
 20
10.1
 10
224.4
 20
10.1
  0
LINE
  5
7F
330
17
100
AcDbEntity
  8
MANHOLE
100
AcDbLine
 10
224.4
 20
8.9
 30
0.0
 11
225.6
 21
10.1
 31
0.0
  0
LINE
  5
80
330
17
100
AcDbEntity
  8
MANHOLE
100
AcDbLine
 10
225.6
 20
8.9
 30
0.0
 11
224.4
 21
10.1
 31
0.0
  0
LWPOLYLINE
  5
81
330
17
100
AcDbEntity
  8
MANHOLE
370
30
100
AcDbPolyline
 90
4
 70
1
 10
224.4
 20
-2.1
 10
225.6
 20
-2.1
 10
225.6
 20
-0.9
 10
224.4
 20
-0.9
  0
LINE
  5
82
330
17
100
AcDbEntity
  8
MANHOLE
100
AcDbLine
 10
224.4
 20
-2.1
 30
0.0
 11
225.6
 21
-0.9
 31
0.0
  0
LINE
  5
83
330
17
100
AcDbEntity
  8
MANHOLE
100
AcDbLine
 10
225.6
 20
-2.1
 30
0.0
 11
224.4
 21
-0.9
 31
0.0
  0
LWPOLYLINE
  5
84
330
17
100
AcDbEntity
  8
MANHOLE
370
30
100
AcDbPolyline
 90
4
 70
1
 10
269.4
 20
8.9
 10
270.6
 20
8.9
 10
270.6
 20
10.1
 10
269.4
 20
10.1
  0
LINE
  5
85
330
17
100
AcDbEntity
  8
MANHOLE
100
AcDbLine
 10
269.4
 20
8.9
 30
0.0
 11
270.6
 21
10.1
 31
0.0
  0
LINE
  5
86
330
17
100
AcDbEntity
  8
MANHOLE
100
AcDbLine
 10
270.6
 20
8.9
 30
0.0
 11
269.4
 21
10.1
 31
0.0
  0
LWPOLYLINE
  5
87
330
17
100
AcDbEntity
  8
MANHOLE
370
30
100
AcDbPolyline
 90
4
 70
1
 10
269.4
 20
-2.1
 10
270.6
 20
-2.1
 10
270.6
 20
-0.9
 10
269.4
 20
-0.9
  0
LINE
  5
88
330
17
100
AcDbEntity
  8
MANHOLE
100
AcDbLine
 10
269.4
 20
-2.1
 30
0.0
 11
270.6
 21
-0.9
 31
0.0
  0
LINE
  5
89
330
17
100
AcDbEntity
  8
MANHOLE
100
AcDbLine
 10
270.6
 20
-2.1
 30
0.0
 11
269.4
 21
-0.9
 31
0.0
  0
LWPOLYLINE
  5
8A
330
17
100
AcDbEntity
  8
MANHOLE
370
30
100
AcDbPolyline
 90
4
 70
1
 10
314.4
 20
8.9
 10
315.6
 20
8.9
 10
315.6
 20
10.1
 10
314.4
 20
10.1
  0
LINE
  5
8B
330
17
100
AcDbEntity
  8
MANHOLE
100
AcDbLine
 10
314.4
 20
8.9
 30
0.0
 11
315.6
 21
10.1
 31
0.0
  0
LINE
  5
8C
330
17
100
AcDbEntity
  8
MANHOLE
100
AcDbLine
 10
315.6
 20
8.9
 30
0.0
 11
314.4
 21
10.1
 31
0.0
  0
LWPOLYLINE
  5
8D
330
17
100
AcDbEntity
  8
MANHOLE
370
30
100
AcDbPolyline
 90
4
 70
1
 10
314.4
 20
-2.1
 10
315.6
 20
-2.1
 10
315.6
 20
-0.9
 10
314.4
 20
-0.9
  0
LINE
  5
8E
330
17
100
AcDbEntity
  8
MANHOLE
100
AcDbLine
 10
314.4
 20
-2.1
 30
0.0
 11
315.6
 21
-0.9
 31
0.0
  0
LINE
  5
8F
330
17
100
AcDbEntity
  8
MANHOLE
100
AcDbLine
 10
315.6
 20
-2.1
 30
0.0
 11
314.4
 21
-0.9
 31
0.0
  0
LWPOLYLINE
  5
90
330
17
100
AcDbEntity
  8
MANHOLE
370
30
100
AcDbPolyline
 90
4
 70
1
 10
359.4
 20
8.9
 10
360.6
 20
8.9
 10
360.6
 20
10.1
 10
359.4
 20
10.1
  0
LINE
  5
91
330
17
100
AcDbEntity
  8
MANHOLE
100
AcDbLine
 10
359.4
 20
8.9
 30
0.0
 11
360.6
 21
10.1
 31
0.0
  0
LINE
  5
92
330
17
100
AcDbEntity
  8
MANHOLE
100
AcDbLine
 10
360.6
 20
8.9
 30
0.0
 11
359.4
 21
10.1
 31
0.0
  0
LWPOLYLINE
  5
93
330
17
100
AcDbEntity
  8
MANHOLE
370
30
100
AcDbPolyline
 90
4
 70
1
 10
359.4
 20
-2.1
 10
360.6
 20
-2.1
 10
360.6
 20
-0.9
 10
359.4
 20
-0.9
  0
LINE
  5
94
330
17
100
AcDbEntity
  8
MANHOLE
100
AcDbLine
 10
359.4
 20
-2.1
 30
0.0
 11
360.6
 21
-0.9
 31
0.0
  0
LINE
  5
95
330
17
100
AcDbEntity
  8
MANHOLE
100
AcDbLine
 10
360.6
 20
-2.1
 30
0.0
 11
359.4
 21
-0.9
 31
0.0
  0
CIRCLE
  5
96
330
17
100
AcDbEntity
  8
POLE_HV
100
AcDbCircle
 10
0.0
 20
14.0
 30
0.0
 40
0.25
  0
LINE
  5
97
330
17
100
AcDbEntity
  8
POLE_HV
  6
DASHED2
 62
8
100
AcDbLine
 10
0.0
 20
10.1
 30
0.0
 11
0.0
 21
13.75
 31
0.0
  0
TEXT
  5
98
330
17
100
AcDbEntity
  8
TEXT
100
AcDbText
 10
0.4
 20
14.4
 30
0.0
 40
0.35
  1
HV-0112ม.
  7
TN
100
AcDbText
  0
CIRCLE
  5
99
330
17
100
AcDbEntity
  8
POLE_LV
100
AcDbCircle
 10
0.0
 20
-6.0
 30
0.0
 40
0.25
  0
LINE
  5
9A
330
17
100
AcDbEntity
  8
POLE_LV
  6
DASHED2
 62
8
100
AcDbLine
 10
0.0
 20
-2.1
 30
0.0
 11
0.0
 21
-5.75
 31
0.0
  0
TEXT
  5
9B
330
17
100
AcDbEntity
  8
TEXT
100
AcDbText
 10
0.4
 20
-7.2
 30
0.0
 40
0.35
  1
LV-019ม.
  7
TN
100
AcDbText
  0
CIRCLE
  5
9C
330
17
100
AcDbEntity
  8
POLE_HV
100
AcDbCircle
 10
45.0
 20
14.0
 30
0.0
 40
0.25
  0
LINE
  5
9D
330
17
100
AcDbEntity
  8
POLE_HV
  6
DASHED2
 62
8
100
AcDbLine
 10
45.0
 20
10.1
 30
0.0
 11
45.0
 21
13.75
 31
0.0
  0
TEXT
  5
9E
330
17
100
AcDbEntity
  8
TEXT
100
AcDbText
 10
45.4
 20
14.4
 30
0.0
 40
0.35
  1
HV-0212ม.
  7
TN
100
AcDbText
  0
CIRCLE
  5
9F
330
17
100
AcDbEntity
  8
POLE_LV
100
AcDbCircle
 10
45.0
 20
-6.0
 30
0.0
 40
0.25
  0
LINE
  5
A0
330
17
100
AcDbEntity
  8
POLE_LV
  6
DASHED2
 62
8
100
AcDbLine
 10
45.0
 20
-2.1
 30
0.0
 11
45.0
 21
-5.75
 31
0.0
  0
TEXT
  5
A1
330
17
100
AcDbEntity
  8
TEXT
100
AcDbText
 10
45.4
 20
-7.2
 30
0.0
 40
0.35
  1
LV-029ม.
  7
TN
100
AcDbText
  0
CIRCLE
  5
A2
330
17
100
AcDbEntity
  8
POLE_HV
100
AcDbCircle
 10
90.0
 20
14.0
 30
0.0
 40
0.25
  0
LINE
  5
A3
330
17
100
AcDbEntity
  8
POLE_HV
  6
DASHED2
 62
8
100
AcDbLine
 10
90.0
 20
10.1
 30
0.0
 11
90.0
 21
13.75
 31
0.0
  0
TEXT
  5
A4
330
17
100
AcDbEntity
  8
TEXT
100
AcDbText
 10
90.4
 20
14.4
 30
0.0
 40
0.35
  1
HV-0312ม.
  7
TN
100
AcDbText
  0
CIRCLE
  5
A5
330
17
100
AcDbEntity
  8
POLE_LV
100
AcDbCircle
 10
90.0
 20
-6.0
 30
0.0
 40
0.25
  0
LINE
  5
A6
330
17
100
AcDbEntity
  8
POLE_LV
  6
DASHED2
 62
8
100
AcDbLine
 10
90.0
 20
-2.1
 30
0.0
 11
90.0
 21
-5.75
 31
0.0
  0
TEXT
  5
A7
330
17
100
AcDbEntity
  8
TEXT
100
AcDbText
 10
90.4
 20
-7.2
 30
0.0
 40
0.35
  1
LV-039ม.
  7
TN
100
AcDbText
  0
CIRCLE
  5
A8
330
17
100
AcDbEntity
  8
POLE_HV
100
AcDbCircle
 10
135.0
 20
14.0
 30
0.0
 40
0.25
  0
LINE
  5
A9
330
17
100
AcDbEntity
  8
POLE_HV
  6
DASHED2
 62
8
100
AcDbLine
 10
135.0
 20
10.1
 30
0.0
 11
135.0
 21
13.75
 31
0.0
  0
TEXT
  5
AA
330
17
100
AcDbEntity
  8
TEXT
100
AcDbText
 10
135.4
 20
14.4
 30
0.0
 40
0.35
  1
HV-0412ม.
  7
TN
100
AcDbText
  0
CIRCLE
  5
AB
330
17
100
AcDbEntity
  8
POLE_LV
100
AcDbCircle
 10
135.0
 20
-6.0
 30
0.0
 40
0.25
  0
LINE
  5
AC
330
17
100
AcDbEntity
  8
POLE_LV
  6
DASHED2
 62
8
100
AcDbLine
 10
135.0
 20
-2.1
 30
0.0
 11
135.0
 21
-5.75
 31
0.0
  0
TEXT
  5
AD
330
17
100
AcDbEntity
  8
TEXT
100
AcDbText
 10
135.4
 20
-7.2
 30
0.0
 40
0.35
  1
LV-049ม.
  7
TN
100
AcDbText
  0
CIRCLE
  5
AE
330
17
100
AcDbEntity
  8
POLE_HV
100
AcDbCircle
 10
180.0
 20
14.0
 30
0.0
 40
0.25
  0
LINE
  5
AF
330
17
100
AcDbEntity
  8
POLE_HV
  6
DASHED2
 62
8
100
AcDbLine
 10
180.0
 20
10.1
 30
0.0
 11
180.0
 21
13.75
 31
0.0
  0
TEXT
  5
B0
330
17
100
AcDbEntity
  8
TEXT
100
AcDbText
 10
180.4
 20
14.4
 30
0.0
 40
0.35
  1
HV-0512ม.
  7
TN
100
AcDbText
  0
CIRCLE
  5
B1
330
17
100
AcDbEntity
  8
POLE_LV
100
AcDbCircle
 10
180.0
 20
-6.0
 30
0.0
 40
0.25
  0
LINE
  5
B2
330
17
100
AcDbEntity
  8
POLE_LV
  6
DASHED2
 62
8
100
AcDbLine
 10
180.0
 20
-2.1
 30
0.0
 11
180.0
 21
-5.75
 31
0.0
  0
TEXT
  5
B3
330
17
100
AcDbEntity
  8
TEXT
100
AcDbText
 10
180.4
 20
-7.2
 30
0.0
 40
0.35
  1
LV-059ม.
  7
TN
100
AcDbText
  0
CIRCLE
  5
B4
330
17
100
AcDbEntity
  8
POLE_HV
100
AcDbCircle
 10
225.0
 20
14.0
 30
0.0
 40
0.25
  0
LINE
  5
B5
330
17
100
AcDbEntity
  8
POLE_HV
  6
DASHED2
 62
8
100
AcDbLine
 10
225.0
 20
10.1
 30
0.0
 11
225.0
 21
13.75
 31
0.0
  0
TEXT
  5
B6
330
17
100
AcDbEntity
  8
TEXT
100
AcDbText
 10
225.4
 20
14.4
 30
0.0
 40
0.35
  1
HV-0612ม.
  7
TN
100
AcDbText
  0
CIRCLE
  5
B7
330
17
100
AcDbEntity
  8
POLE_LV
100
AcDbCircle
 10
225.0
 20
-6.0
 30
0.0
 40
0.25
  0
LINE
  5
B8
330
17
100
AcDbEntity
  8
POLE_LV
  6
DASHED2
 62
8
100
AcDbLine
 10
225.0
 20
-2.1
 30
0.0
 11
225.0
 21
-5.75
 31
0.0
  0
TEXT
  5
B9
330
17
100
AcDbEntity
  8
TEXT
100
AcDbText
 10
225.4
 20
-7.2
 30
0.0
 40
0.35
  1
LV-069ม.
  7
TN
100
AcDbText
  0
CIRCLE
  5
BA
330
17
100
AcDbEntity
  8
POLE_HV
100
AcDbCircle
 10
270.0
 20
14.0
 30
0.0
 40
0.25
  0
LINE
  5
BB
330
17
100
AcDbEntity
  8
POLE_HV
  6
DASHED2
 62
8
100
AcDbLine
 10
270.0
 20
10.1
 30
0.0
 11
270.0
 21
13.75
 31
0.0
  0
TEXT
  5
BC
330
17
100
AcDbEntity
  8
TEXT
100
AcDbText
 10
270.4
 20
14.4
 30
0.0
 40
0.35
  1
HV-0712ม.
  7
TN
100
AcDbText
  0
CIRCLE
  5
BD
330
17
100
AcDbEntity
  8
POLE_LV
100
AcDbCircle
 10
270.0
 20
-6.0
 30
0.0
 40
0.25
  0
LINE
  5
BE
330
17
100
AcDbEntity
  8
POLE_LV
  6
DASHED2
 62
8
100
AcDbLine
 10
270.0
 20
-2.1
 30
0.0
 11
270.0
 21
-5.75
 31
0.0
  0
TEXT
  5
BF
330
17
100
AcDbEntity
  8
TEXT
100
AcDbText
 10
270.4
 20
-7.2
 30
0.0
 40
0.35
  1
LV-079ม.
  7
TN
100
AcDbText
  0
CIRCLE
  5
C0
330
17
100
AcDbEntity
  8
POLE_HV
100
AcDbCircle
 10
315.0
 20
14.0
 30
0.0
 40
0.25
  0
LINE
  5
C1
330
17
100
AcDbEntity
  8
POLE_HV
  6
DASHED2
 62
8
100
AcDbLine
 10
315.0
 20
10.1
 30
0.0
 11
315.0
 21
13.75
 31
0.0
  0
TEXT
  5
C2
330
17
100
AcDbEntity
  8
TEXT
100
AcDbText
 10
315.4
 20
14.4
 30
0.0
 40
0.35
  1
HV-0812ม.
  7
TN
100
AcDbText
  0
CIRCLE
  5
C3
330
17
100
AcDbEntity
  8
POLE_LV
100
AcDbCircle
 10
315.0
 20
-6.0
 30
0.0
 40
0.25
  0
LINE
  5
C4
330
17
100
AcDbEntity
  8
POLE_LV
  6
DASHED2
 62
8
100
AcDbLine
 10
315.0
 20
-2.1
 30
0.0
 11
315.0
 21
-5.75
 31
0.0
  0
TEXT
  5
C5
330
17
100
AcDbEntity
  8
TEXT
100
AcDbText
 10
315.4
 20
-7.2
 30
0.0
 40
0.35
  1
LV-089ม.
  7
TN
100
AcDbText
  0
CIRCLE
  5
C6
330
17
100
AcDbEntity
  8
POLE_HV
100
AcDbCircle
 10
360.0
 20
14.0
 30
0.0
 40
0.25
  0
LINE
  5
C7
330
17
100
AcDbEntity
  8
POLE_HV
  6
DASHED2
 62
8
100
AcDbLine
 10
360.0
 20
10.1
 30
0.0
 11
360.0
 21
13.75
 31
0.0
  0
TEXT
  5
C8
330
17
100
AcDbEntity
  8
TEXT
100
AcDbText
 10
360.4
 20
14.4
 30
0.0
 40
0.35
  1
HV-0912ม.
  7
TN
100
AcDbText
  0
CIRCLE
  5
C9
330
17
100
AcDbEntity
  8
POLE_LV
100
AcDbCircle
 10
360.0
 20
-6.0
 30
0.0
 40
0.25
  0
LINE
  5
CA
330
17
100
AcDbEntity
  8
POLE_LV
  6
DASHED2
 62
8
100
AcDbLine
 10
360.0
 20
-2.1
 30
0.0
 11
360.0
 21
-5.75
 31
0.0
  0
TEXT
  5
CB
330
17
100
AcDbEntity
  8
TEXT
100
AcDbText
 10
360.4
 20
-7.2
 30
0.0
 40
0.35
  1
LV-099ม.
  7
TN
100
AcDbText
  0
LWPOLYLINE
  5
CC
330
17
100
AcDbEntity
  8
TRANSFORMER
370
60
100
AcDbPolyline
 90
4
 70
1
 10
178.8
 20
12.8
 10
181.2
 20
12.8
 10
181.2
 20
15.2
 10
178.8
 20
15.2
  0
LINE
  5
CD
330
17
100
AcDbEntity
  8
TRANSFORMER
100
AcDbLine
 10
178.8
 20
12.8
 30
0.0
 11
181.2
 21
15.2
 31
0.0
  0
LINE
  5
CE
330
17
100
AcDbEntity
  8
TRANSFORMER
100
AcDbLine
 10
181.2
 20
12.8
 30
0.0
 11
178.8
 21
15.2
 31
0.0
  0
TEXT
  5
CF
330
17
100
AcDbEntity
  8
TEXT
100
AcDbText
 10
181.5
 20
14.2
 30
0.0
 40
0.4
  1
หม้อแปลง100 kVA22kV/400-230V
  7
TN
100
AcDbText
  0
LINE
  5
D0
330
17
100
AcDbEntity
  8
TRANSFORMER
  6
DASHED
100
AcDbLine
 10
180.0
 20
12.8
 30
0.0
 11
180.0
 21
-5.75
 31
0.0
  0
LINE
  5
D1
330
17
100
AcDbEntity
  8
LINE_HV
 62
1
370
70
100
AcDbLine
 10
0.0
 20
14.0
 30
0.0
 11
45.0
 21
14.0
 31
0.0
  0
TEXT
  5
D2
330
17
100
AcDbEntity
  8
LINE_HV
100
AcDbText
 10
18.5
 20
14.8
 30
0.0
 40
0.3
  1
22 kV ACSR 50 sq.mm
  7
TN
100
AcDbText
  0
LINE
  5
D3
330
17
100
AcDbEntity
  8
LINE_HV
 62
1
370
70
100
AcDbLine
 10
45.0
 20
14.0
 30
0.0
 11
90.0
 21
14.0
 31
0.0
  0
TEXT
  5
D4
330
17
100
AcDbEntity
  8
LINE_HV
100
AcDbText
 10
63.5
 20
14.8
 30
0.0
 40
0.3
  1
22 kV ACSR 50 sq.mm
  7
TN
100
AcDbText
  0
LINE
  5
D5
330
17
100
AcDbEntity
  8
LINE_HV
 62
1
370
70
100
AcDbLine
 10
90.0
 20
14.0
 30
0.0
 11
135.0
 21
14.0
 31
0.0
  0
TEXT
  5
D6
330
17
100
AcDbEntity
  8
LINE_HV
100
AcDbText
 10
108.5
 20
14.8
 30
0.0
 40
0.3
  1
22 kV ACSR 50 sq.mm
  7
TN
100
AcDbText
  0
LINE
  5
D7
330
17
100
AcDbEntity
  8
LINE_HV
 62
1
370
70
100
AcDbLine
 10
135.0
 20
14.0
 30
0.0
 11
180.0
 21
14.0
 31
0.0
  0
TEXT
  5
D8
330
17
100
AcDbEntity
  8
LINE_HV
100
AcDbText
 10
153.5
 20
14.8
 30
0.0
 40
0.3
  1
22 kV ACSR 50 sq.mm
  7
TN
100
AcDbText
  0
LINE
  5
D9
330
17
100
AcDbEntity
  8
LINE_HV
 62
1
370
70
100
AcDbLine
 10
180.0
 20
14.0
 30
0.0
 11
225.0
 21
14.0
 31
0.0
  0
TEXT
  5
DA
330
17
100
AcDbEntity
  8
LINE_HV
100
AcDbText
 10
198.5
 20
14.8
 30
0.0
 40
0.3
  1
22 kV ACSR 50 sq.mm
  7
TN
100
AcDbText
  0
LINE
  5
DB
330
17
100
AcDbEntity
  8
LINE_HV
 62
1
370
70
100
AcDbLine
 10
225.0
 20
14.0
 30
0.0
 11
270.0
 21
14.0
 31
0.0
  0
TEXT
  5
DC
330
17
100
AcDbEntity
  8
LINE_HV
100
AcDbText
 10
243.5
 20
14.8
 30
0.0
 40
0.3
  1
22 kV ACSR 50 sq.mm
  7
TN
100
AcDbText
  0
LINE
  5
DD
330
17
100
AcDbEntity
  8
LINE_HV
 62
1
370
70
100
AcDbLine
 10
270.0
 20
14.0
 30
0.0
 11
315.0
 21
14.0
 31
0.0
  0
TEXT
  5
DE
330
17
100
AcDbEntity
  8
LINE_HV
100
AcDbText
 10
288.5
 20
14.8
 30
0.0
 40
0.3
  1
22 kV ACSR 50 sq.mm
  7
TN
100
AcDbText
  0
LINE
  5
DF
330
17
100
AcDbEntity
  8
LINE_HV
 62
1
370
70
100
AcDbLine
 10
315.0
 20
14.0
 30
0.0
 11
360.0
 21
14.0
 31
0.0
  0
TEXT
  5
E0
330
17
100
AcDbEntity
  8
LINE_HV
100
AcDbText
 10
333.5
 20
14.8
 30
0.0
 40
0.3
  1
22 kV ACSR 50 sq.mm
  7
TN
100
AcDbText
  0
LINE
  5
E1
330
17
100
AcDbEntity
  8
LINE_LV
 62
3
370
50
100
AcDbLine
 10
0.0
 20
-6.0
 30
0.0
 11
45.0
 21
-6.0
 31
0.0
  0
TEXT
  5
E2
330
17
100
AcDbEntity
  8
LINE_LV
100
AcDbText
 10
18.5
 20
-8.2
 30
0.0
 40
0.3
  1
ABC 4×25 sq.mm 400V
  7
TN
100
AcDbText
  0
LINE
  5
E3
330
17
100
AcDbEntity
  8
LINE_LV
 62
3
370
50
100
AcDbLine
 10
45.0
 20
-6.0
 30
0.0
 11
90.0
 21
-6.0
 31
0.0
  0
TEXT
  5
E4
330
17
100
AcDbEntity
  8
LINE_LV
100
AcDbText
 10
63.5
 20
-8.2
 30
0.0
 40
0.3
  1
ABC 4×25 sq.mm 400V
  7
TN
100
AcDbText
  0
LINE
  5
E5
330
17
100
AcDbEntity
  8
LINE_LV
 62
3
370
50
100
AcDbLine
 10
90.0
 20
-6.0
 30
0.0
 11
135.0
 21
-6.0
 31
0.0
  0
TEXT
  5
E6
330
17
100
AcDbEntity
  8
LINE_LV
100
AcDbText
 10
108.5
 20
-8.2
 30
0.0
 40
0.3
  1
ABC 4×25 sq.mm 400V
  7
TN
100
AcDbText
  0
LINE
  5
E7
330
17
100
AcDbEntity
  8
LINE_LV
 62
3
370
50
100
AcDbLine
 10
135.0
 20
-6.0
 30
0.0
 11
180.0
 21
-6.0
 31
0.0
  0
TEXT
  5
E8
330
17
100
AcDbEntity
  8
LINE_LV
100
AcDbText
 10
153.5
 20
-8.2
 30
0.0
 40
0.3
  1
ABC 4×25 sq.mm 400V
  7
TN
100
AcDbText
  0
LINE
  5
E9
330
17
100
AcDbEntity
  8
LINE_LV
 62
3
370
50
100
AcDbLine
 10
180.0
 20
-6.0
 30
0.0
 11
225.0
 21
-6.0
 31
0.0
  0
TEXT
  5
EA
330
17
100
AcDbEntity
  8
LINE_LV
100
AcDbText
 10
198.5
 20
-8.2
 30
0.0
 40
0.3
  1
ABC 4×25 sq.mm 400V
  7
TN
100
AcDbText
  0
LINE
  5
EB
330
17
100
AcDbEntity
  8
LINE_LV
 62
3
370
50
100
AcDbLine
 10
225.0
 20
-6.0
 30
0.0
 11
270.0
 21
-6.0
 31
0.0
  0
TEXT
  5
EC
330
17
100
AcDbEntity
  8
LINE_LV
100
AcDbText
 10
243.5
 20
-8.2
 30
0.0
 40
0.3
  1
ABC 4×25 sq.mm 400V
  7
TN
100
AcDbText
  0
LINE
  5
ED
330
17
100
AcDbEntity
  8
LINE_LV
 62
3
370
50
100
AcDbLine
 10
270.0
 20
-6.0
 30
0.0
 11
315.0
 21
-6.0
 31
0.0
  0
TEXT
  5
EE
330
17
100
AcDbEntity
  8
LINE_LV
100
AcDbText
 10
288.5
 20
-8.2
 30
0.0
 40
0.3
  1
ABC 4×25 sq.mm 400V
  7
TN
100
AcDbText
  0
LINE
  5
EF
330
17
100
AcDbEntity
  8
LINE_LV
 62
3
370
50
100
AcDbLine
 10
315.0
 20
-6.0
 30
0.0
 11
360.0
 21
-6.0
 31
0.0
  0
TEXT
  5
F0
330
17
100
AcDbEntity
  8
LINE_LV
100
AcDbText
 10
333.5
 20
-8.2
 30
0.0
 40
0.3
  1
ABC 4×25 sq.mm 400V
  7
TN
100
AcDbText
  0
LINE
  5
F1
330
17
100
AcDbEntity
  8
LINE_SVC
370
25
100
AcDbLine
 10
45.0
 20
14.0
 30
0.0
 11
24.0
 21
18.0
 31
0.0
  0
LINE
  5
F2
330
17
100
AcDbEntity
  8
LINE_SVC
370
25
100
AcDbLine
 10
90.0
 20
14.0
 30
0.0
 11
74.0
 21
18.0
 31
0.0
  0
LINE
  5
F3
330
17
100
AcDbEntity
  8
LINE_SVC
370
25
100
AcDbLine
 10
135.0
 20
14.0
 30
0.0
 11
119.0
 21
18.0
 31
0.0
  0
LINE
  5
F4
330
17
100
AcDbEntity
  8
LINE_SVC
370
25
100
AcDbLine
 10
180.0
 20
14.0
 30
0.0
 11
169.0
 21
18.0
 31
0.0
  0
LINE
  5
F5
330
17
100
AcDbEntity
  8
LINE_SVC
370
25
100
AcDbLine
 10
225.0
 20
14.0
 30
0.0
 11
219.0
 21
18.0
 31
0.0
  0
LINE
  5
F6
330
17
100
AcDbEntity
  8
LINE_SVC
370
25
100
AcDbLine
 10
270.0
 20
14.0
 30
0.0
 11
269.0
 21
18.0
 31
0.0
  0
LINE
  5
F7
330
17
100
AcDbEntity
  8
LINE_SVC
370
25
100
AcDbLine
 10
315.0
 20
14.0
 30
0.0
 11
314.0
 21
18.0
 31
0.0
  0
LINE
  5
F8
330
17
100
AcDbEntity
  8
LINE_SVC
370
25
100
AcDbLine
 10
45.0
 20
-6.0
 30
0.0
 11
24.0
 21
-8.0
 31
0.0
  0
LINE
  5
F9
330
17
100
AcDbEntity
  8
LINE_SVC
370
25
100
AcDbLine
 10
90.0
 20
-6.0
 30
0.0
 11
74.0
 21
-8.0
 31
0.0
  0
LINE
  5
FA
330
17
100
AcDbEntity
  8
LINE_SVC
370
25
100
AcDbLine
 10
135.0
 20
-6.0
 30
0.0
 11
119.0
 21
-8.0
 31
0.0
  0
LINE
  5
FB
330
17
100
AcDbEntity
  8
LINE_SVC
370
25
100
AcDbLine
 10
180.0
 20
-6.0
 30
0.0
 11
169.0
 21
-8.0
 31
0.0
  0
LINE
  5
FC
330
17
100
AcDbEntity
  8
LINE_SVC
370
25
100
AcDbLine
 10
225.0
 20
-6.0
 30
0.0
 11
219.0
 21
-8.0
 31
0.0
  0
LINE
  5
FD
330
17
100
AcDbEntity
  8
LINE_SVC
370
25
100
AcDbLine
 10
270.0
 20
-6.0
 30
0.0
 11
269.0
 21
-8.0
 31
0.0
  0
LINE
  5
FE
330
17
100
AcDbEntity
  8
LINE_SVC
370
25
100
AcDbLine
 10
315.0
 20
-6.0
 30
0.0
 11
314.0
 21
-8.0
 31
0.0
  0
LINE
  5
FF
330
17
100
AcDbEntity
  8
LINE_SVC
370
35
100
AcDbLine
 10
360.0
 20
14.0
 30
0.0
 11
332.0
 21
24.0
 31
0.0
  0
LINE
  5
100
330
17
100
AcDbEntity
  8
LINE_SVC
370
35
100
AcDbLine
 10
360.0
 20
-6.0
 30
0.0
 11
332.0
 21
18.0
 31
0.0
  0
LINE
  5
101
330
17
100
AcDbEntity
  8
DIMENSION
100
AcDbLine
 10
0.0
 20
-20.4
 30
0.0
 11
45.0
 21
-20.4
 31
0.0
  0
LINE
  5
102
330
17
100
AcDbEntity
  8
DIMENSION
100
AcDbLine
 10
0.0
 20
-21.0
 30
0.0
 11
0.0
 21
-19.8
 31
0.0
  0
LINE
  5
103
330
17
100
AcDbEntity
  8
DIMENSION
100
AcDbLine
 10
45.0
 20
-21.0
 30
0.0
 11
45.0
 21
-19.8
 31
0.0
  0
TEXT
  5
104
330
17
100
AcDbEntity
  8
DIMENSION
100
AcDbText
 10
19.5
 20
-22.5
 30
0.0
 40
0.45
  1
ระยะ 45 ม.
  7
TN
100
AcDbText
  0
LINE
  5
105
330
17
100
AcDbEntity
  8
DIMENSION
100
AcDbLine
 10
45.0
 20
-20.4
 30
0.0
 11
90.0
 21
-20.4
 31
0.0
  0
LINE
  5
106
330
17
100
AcDbEntity
  8
DIMENSION
100
AcDbLine
 10
45.0
 20
-21.0
 30
0.0
 11
45.0
 21
-19.8
 31
0.0
  0
LINE
  5
107
330
17
100
AcDbEntity
  8
DIMENSION
100
AcDbLine
 10
90.0
 20
-21.0
 30
0.0
 11
90.0
 21
-19.8
 31
0.0
  0
TEXT
  5
108
330
17
100
AcDbEntity
  8
DIMENSION
100
AcDbText
 10
64.5
 20
-22.5
 30
0.0
 40
0.45
  1
ระยะ 45 ม.
  7
TN
100
AcDbText
  0
LINE
  5
109
330
17
100
AcDbEntity
  8
DIMENSION
100
AcDbLine
 10
90.0
 20
-20.4
 30
0.0
 11
135.0
 21
-20.4
 31
0.0
  0
LINE
  5
10A
330
17
100
AcDbEntity
  8
DIMENSION
100
AcDbLine
 10
90.0
 20
-21.0
 30
0.0
 11
90.0
 21
-19.8
 31
0.0
  0
LINE
  5
10B
330
17
100
AcDbEntity
  8
DIMENSION
100
AcDbLine
 10
135.0
 20
-21.0
 30
0.0
 11
135.0
 21
-19.8
 31
0.0
  0
TEXT
  5
10C
330
17
100
AcDbEntity
  8
DIMENSION
100
AcDbText
 10
109.5
 20
-22.5
 30
0.0
 40
0.45
  1
ระยะ 45 ม.
  7
TN
100
AcDbText
  0
LINE
  5
10D
330
17
100
AcDbEntity
  8
DIMENSION
100
AcDbLine
 10
135.0
 20
-20.4
 30
0.0
 11
180.0
 21
-20.4
 31
0.0
  0
LINE
  5
10E
330
17
100
AcDbEntity
  8
DIMENSION
100
AcDbLine
 10
135.0
 20
-21.0
 30
0.0
 11
135.0
 21
-19.8
 31
0.0
  0
LINE
  5
10F
330
17
100
AcDbEntity
  8
DIMENSION
100
AcDbLine
 10
180.0
 20
-21.0
 30
0.0
 11
180.0
 21
-19.8
 31
0.0
  0
TEXT
  5
110
330
17
100
AcDbEntity
  8
DIMENSION
100
AcDbText
 10
154.5
 20
-22.5
 30
0.0
 40
0.45
  1
ระยะ 45 ม.
  7
TN
100
AcDbText
  0
LINE
  5
111
330
17
100
AcDbEntity
  8
DIMENSION
100
AcDbLine
 10
180.0
 20
-20.4
 30
0.0
 11
225.0
 21
-20.4
 31
0.0
  0
LINE
  5
112
330
17
100
AcDbEntity
  8
DIMENSION
100
AcDbLine
 10
180.0
 20
-21.0
 30
0.0
 11
180.0
 21
-19.8
 31
0.0
  0
LINE
  5
113
330
17
100
AcDbEntity
  8
DIMENSION
100
AcDbLine
 10
225.0
 20
-21.0
 30
0.0
 11
225.0
 21
-19.8
 31
0.0
  0
TEXT
  5
114
330
17
100
AcDbEntity
  8
DIMENSION
100
AcDbText
 10
199.5
 20
-22.5
 30
0.0
 40
0.45
  1
ระยะ 45 ม.
  7
TN
100
AcDbText
  0
LINE
  5
115
330
17
100
AcDbEntity
  8
DIMENSION
100
AcDbLine
 10
225.0
 20
-20.4
 30
0.0
 11
270.0
 21
-20.4
 31
0.0
  0
LINE
  5
116
330
17
100
AcDbEntity
  8
DIMENSION
100
AcDbLine
 10
225.0
 20
-21.0
 30
0.0
 11
225.0
 21
-19.8
 31
0.0
  0
LINE
  5
117
330
17
100
AcDbEntity
  8
DIMENSION
100
AcDbLine
 10
270.0
 20
-21.0
 30
0.0
 11
270.0
 21
-19.8
 31
0.0
  0
TEXT
  5
118
330
17
100
AcDbEntity
  8
DIMENSION
100
AcDbText
 10
244.5
 20
-22.5
 30
0.0
 40
0.45
  1
ระยะ 45 ม.
  7
TN
100
AcDbText
  0
LINE
  5
119
330
17
100
AcDbEntity
  8
DIMENSION
100
AcDbLine
 10
270.0
 20
-20.4
 30
0.0
 11
315.0
 21
-20.4
 31
0.0
  0
LINE
  5
11A
330
17
100
AcDbEntity
  8
DIMENSION
100
AcDbLine
 10
270.0
 20
-21.0
 30
0.0
 11
270.0
 21
-19.8
 31
0.0
  0
LINE
  5
11B
330
17
100
AcDbEntity
  8
DIMENSION
100
AcDbLine
 10
315.0
 20
-21.0
 30
0.0
 11
315.0
 21
-19.8
 31
0.0
  0
TEXT
  5
11C
330
17
100
AcDbEntity
  8
DIMENSION
100
AcDbText
 10
289.5
 20
-22.5
 30
0.0
 40
0.45
  1
ระยะ 45 ม.
  7
TN
100
AcDbText
  0
LINE
  5
11D
330
17
100
AcDbEntity
  8
DIMENSION
100
AcDbLine
 10
315.0
 20
-20.4
 30
0.0
 11
360.0
 21
-20.4
 31
0.0
  0
LINE
  5
11E
330
17
100
AcDbEntity
  8
DIMENSION
100
AcDbLine
 10
315.0
 20
-21.0
 30
0.0
 11
315.0
 21
-19.8
 31
0.0
  0
LINE
  5
11F
330
17
100
AcDbEntity
  8
DIMENSION
100
AcDbLine
 10
360.0
 20
-21.0
 30
0.0
 11
360.0
 21
-19.8
 31
0.0
  0
TEXT
  5
120
330
17
100
AcDbEntity
  8
DIMENSION
100
AcDbText
 10
334.5
 20
-22.5
 30
0.0
 40
0.45
  1
ระยะ 45 ม.
  7
TN
100
AcDbText
  0
TEXT
  5
121
330
17
100
AcDbEntity
  8
TEXT
100
AcDbText
 10
5.0
 20
-27.0
 30
0.0
 40
0.7
  1
สัญลักษณ์
  7
TN
100
AcDbText
  0
TEXT
  5
122
330
17
100
AcDbEntity
  8
POLE_HV
100
AcDbText
 10
5.0
 20
-29.0
 30
0.0
 40
0.5
  1
○ เสาคอนกรีต HV 12 ม. (แรงสูง)
  7
TN
100
AcDbText
  0
TEXT
  5
123
330
17
100
AcDbEntity
  8
POLE_LV
100
AcDbText
 10
5.0
 20
-30.5
 30
0.0
 40
0.5
  1
○ เสาคอนกรีต LV 9 ม. (แรงต่ำ)
  7
TN
100
AcDbText
  0
TEXT
  5
124
330
17
100
AcDbEntity
  8
LINE_HV
100
AcDbText
 10
5.0
 20
-32.0
 30
0.0
 40
0.5
  1
── สายแรงสูง 22 kV ACSR 50 sq.mm
  7
TN
100
AcDbText
  0
TEXT
  5
125
330
17
100
AcDbEntity
  8
LINE_LV
100
AcDbText
 10
5.0
 20
-33.5
 30
0.0
 40
0.5
  1
── สาย LV 400 V ABC 4×25 sq.mm
  7
TN
100
AcDbText
  0
TEXT
  5
126
330
17
100
AcDbEntity
  8
LINE_SVC
100
AcDbText
 10
5.0
 20
-35.0
 30
0.0
 40
0.5
  1
── สายเชื่อมบ้าน (Service)
  7
TN
100
AcDbText
  0
TEXT
  5
127
330
17
100
AcDbEntity
  8
TRANSFORMER
100
AcDbText
 10
5.0
 20
-36.5
 30
0.0
 40
0.5
  1
□ หม้อแปลง 100 kVA 22kV/400-230V
  7
TN
100
AcDbText
  0
TEXT
  5
128
330
17
100
AcDbEntity
  8
MANHOLE
100
AcDbText
 10
5.0
 20
-38.0
 30
0.0
 40
0.5
  1
☒ บ่อพัก (ตำแหน่งอ้างอิงเสา)
  7
TN
100
AcDbText
  0
TEXT
  5
129
330
17
100
AcDbEntity
  8
TEXT
100
AcDbText
 10
180.0
 20
-27.0
 30
0.0
 40
0.65
  1
หมายเหตุ (มาตรฐาน MEA / PEA)
  7
TN
100
AcDbText
  0
TEXT
  5
12A
330
17
100
AcDbEntity
  8
TEXT
100
AcDbText
 10
180.0
 20
-29.0
 30
0.0
 40
0.42
  1
1. ระยะห่างเสา 45 ม. (ชนบท, ไม่เกิน 50 ม.)
  7
TN
100
AcDbText
  0
TEXT
  5
12B
330
17
100
AcDbEntity
  8
TEXT
100
AcDbText
 10
180.0
 20
-30.4
 30
0.0
 40
0.42
  1
2. เสา HV คอนกรีต 12 ม. ฝังดิน 2.0 ม.
  7
TN
100
AcDbText
  0
TEXT
  5
12C
330
17
100
AcDbEntity
  8
TEXT
100
AcDbText
 10
180.0
 20
-31.8
 30
0.0
 40
0.42
  1
3. เสา LV คอนกรีต 9 ม. ฝังดิน 1.8 ม.
  7
TN
100
AcDbText
  0
TEXT
  5
12D
330
17
100
AcDbEntity
  8
TEXT
100
AcDbText
 10
180.0
 20
-33.2
 30
0.0
 40
0.42
  1
4. ตำแหน่งเสาอยู่ด้านหลังบ่อพัก ห่างขอบถนน ≥ 1.00 ม.
  7
TN
100
AcDbText
  0
TEXT
  5
12E
330
17
100
AcDbEntity
  8
TEXT
100
AcDbText
 10
180.0
 20
-34.6
 30
0.0
 40
0.42
  1
5. สายแรงสูง 22 kV: ACSR 50 sq.mm ระยะห่างดิน ≥ 6.0 ม.
  7
TN
100
AcDbText
  0
TEXT
  5
12F
330
17
100
AcDbEntity
  8
TEXT
100
AcDbText
 10
180.0
 20
-36.0
 30
0.0
 40
0.42
  1
6. สาย LV: ABC 4×25 sq.mm ระยะห่างดิน ≥ 5.0 ม.
  7
TN
100
AcDbText
  0
TEXT
  5
130
330
17
100
AcDbEntity
  8
TEXT
100
AcDbText
 10
180.0
 20
-37.4
 30
0.0
 40
0.42
  1
7. Sag แรงสูง 1.0% ของ span; LV 0.8%
  7
TN
100
AcDbText
  0
TEXT
  5
131
330
17
100
AcDbEntity
  8
TEXT
100
AcDbText
 10
180.0
 20
-38.8
 30
0.0
 40
0.42
  1
8. หม้อแปลง 100 kVA ติดเสา ห่างพื้น ≥ 3.5 ม.
  7
TN
100
AcDbText
  0
TEXT
  5
132
330
17
100
AcDbEntity
  8
TEXT
100
AcDbText
 10
180.0
 20
-40.2
 30
0.0
 40
0.42
  1
9. Service drop ≤ 30 ม. (มาตรฐาน กฟน.)
  7
TN
100
AcDbText
  0
TEXT
  5
133
330
17
100
AcDbEntity
  8
TEXT
100
AcDbText
 10
180.0
 20
-41.6
 30
0.0
 40
0.42
  1
10. Ground wire: Galv. 50 sq.mm ตลอดสาย
  7
TN
100
AcDbText
  0
LWPOLYLINE
  5
134
330
17
100
AcDbEntity
  8
BORDER
370
100
100
AcDbPolyline
 90
4
 70
1
 10
-10.0
 20
-46.0
 10
370.0
 20
-46.0
 10
370.0
 20
-34.0
 10
-10.0
 20
-34.0
  0
LINE
  5
135
330
17
100
AcDbEntity
  8
BORDER
100
AcDbLine
 10
-10.0
 20
-40.0
 30
0.0
 11
370.0
 21
-40.0
 31
0.0
  0
LINE
  5
136
330
17
100
AcDbEntity
  8
BORDER
100
AcDbLine
 10
180.0
 20
-46.0
 30
0.0
 11
180.0
 21
-40.0
 31
0.0
  0
LINE
  5
137
330
17
100
AcDbEntity
  8
BORDER
100
AcDbLine
 10
275.0
 20
-46.0
 30
0.0
 11
275.0
 21
-40.0
 31
0.0
  0
TEXT
  5
138
330
17
100
AcDbEntity
  8
TEXT
100
AcDbText
 10
-5.0
 20
-37.5
 30
0.0
 40
1.2
  1
แบบงานปักเสาพาดสายไฟฟ้าแรงสูง 22 kV เข้าหมู่บ้าน ทางชนบท 2
  7
TN
100
AcDbText
  0
TEXT
  5
139
330
17
100
AcDbEntity
  8
TEXT
100
AcDbText
 10
-5.0
 20
-38.9
 30
0.0
 40
0.7
  1
Electrical Pole & Overhead Line Layout – Rural Road 2  (MEA Standard)
  7
TN
100
AcDbText
  0
TEXT
  5
13A
330
17
100
AcDbEntity
  8
TEXT
100
AcDbText
 10
-5.0
 20
-41.5
 30
0.0
 40
0.5
  1
โครงการ:
  7
TN
100
AcDbText
  0
TEXT
  5
13B
330
17
100
AcDbEntity
  8
TEXT
100
AcDbText
 10
-5.0
 20
-43.0
 30
0.0
 40
0.55
  1
ไฟฟ้าแรงสูง เข้าชุมชน ทางชนบท 2
  7
TN
100
AcDbText
  0
TEXT
  5
13C
330
17
100
AcDbEntity
  8
TEXT
100
AcDbText
 10
-5.0
 20
-44.5
 30
0.0
 40
0.45
  1
มาตรฐาน: MEA / PEA 22 kV Distribution
  7
TN
100
AcDbText
  0
TEXT
  5
13D
330
17
100
AcDbEntity
  8
TEXT
100
AcDbText
 10
183.8
 20
-41.5
 30
0.0
 40
0.5
  1
สถานที่:  ทางชนบท 2
  7
TN
100
AcDbText
  0
TEXT
  5
13E
330
17
100
AcDbEntity
  8
TEXT
100
AcDbText
 10
183.8
 20
-43.0
 30
0.0
 40
0.5
  1
วันที่: 14 พฤษภาคม 2569
  7
TN
100
AcDbText
  0
TEXT
  5
13F
330
17
100
AcDbEntity
  8
TEXT
100
AcDbText
 10
183.8
 20
-44.5
 30
0.0
 40
0.5
  1
สเกล: 1:1000
  7
TN
100
AcDbText
  0
TEXT
  5
140
330
17
100
AcDbEntity
  8
TEXT
100
AcDbText
 10
278.8
 20
-41.5
 30
0.0
 40
0.5
  1
เลขที่แบบ: E-HV-001
  7
TN
100
AcDbText
  0
TEXT
  5
141
330
17
100
AcDbEntity
  8
TEXT
100
AcDbText
 10
278.8
 20
-43.0
 30
0.0
 40
0.5
  1
แก้ไขครั้งที่: 0
  7
TN
100
AcDbText
  0
TEXT
  5
142
330
17
100
AcDbEntity
  8
TEXT
100
AcDbText
 10
278.8
 20
-44.5
 30
0.0
 40
0.5
  1
แผ่นที่: 1 / 1
  7
TN
100
AcDbText
  0
LWPOLYLINE
  5
143
330
17
100
AcDbEntity
  8
BORDER
370
100
100
AcDbPolyline
 90
4
 70
1
 10
-15.0
 20
-50.0
 10
375.0
 20
-50.0
 10
375.0
 20
45.0
 10
-15.0
 20
45.0
  0
ENDSEC
  0
SECTION
  2
OBJECTS
  0
DICTIONARY
  5
A
330
0
100
AcDbDictionary
281
1
  3
ACAD_COLOR
350
B
  3
ACAD_GROUP
350
C
  3
ACAD_LAYOUT
350
D
  3
ACAD_MATERIAL
350
E
  3
ACAD_MLEADERSTYLE
350
F
  3
ACAD_MLINESTYLE
350
10
  3
ACAD_PLOTSETTINGS
350
11
  3
ACAD_PLOTSTYLENAME
350
12
  3
ACAD_SCALELIST
350
14
  3
ACAD_TABLESTYLE
350
15
  3
ACAD_VISUALSTYLE
350
16
  3
EZDXF_META
350
2D
  0
DICTIONARY
  5
B
330
A
100
AcDbDictionary
281
1
  0
DICTIONARY
  5
C
330
A
100
AcDbDictionary
281
1
  0
DICTIONARY
  5
D
330
A
100
AcDbDictionary
281
1
  3
Model
350
1A
  3
Layout1
350
1E
  0
DICTIONARY
  5
E
330
A
100
AcDbDictionary
281
1
  3
ByBlock
350
1F
  3
ByLayer
350
20
  3
Global
350
21
  0
DICTIONARY
  5
F
330
A
100
AcDbDictionary
281
1
  3
Standard
350
2C
  0
DICTIONARY
  5
10
330
A
100
AcDbDictionary
281
1
  3
Standard
350
22
  0
DICTIONARY
  5
11
330
A
100
AcDbDictionary
281
1
  0
ACDBDICTIONARYWDFLT
  5
12
330
A
100
AcDbDictionary
281
1
  3
Normal
350
13
100
AcDbDictionaryWithDefault
340
13
  0
ACDBPLACEHOLDER
  5
13
330
12
  0
DICTIONARY
  5
14
330
A
100
AcDbDictionary
281
1
  0
DICTIONARY
  5
15
330
A
100
AcDbDictionary
281
1
  0
DICTIONARY
  5
16
330
A
100
AcDbDictionary
281
1
  0
LAYOUT
  5
1A
330
D
100
AcDbPlotSettings
  1

  4
A3
  6

 40
7.5
 41
20.0
 42
7.5
 43
20.0
 44
420.0
 45
297.0
 46
0.0
 47
0.0
 48
0.0
 49
0.0
140
0.0
141
0.0
142
1.0
143
1.0
 70
1024
 72
1
 73
0
 74
5
  7

 75
16
 76
0
 77
2
 78
300
147
1.0
148
0.0
149
0.0
100
AcDbLayout
  1
Model
 70
1
 71
0
 10
0.0
 20
0.0
 11
420.0
 21
297.0
 12
0.0
 22
0.0
 32
0.0
 14
1e+20
 24
1e+20
 34
1e+20
 15
-1e+20
 25
-1e+20
 35
-1e+20
146
0.0
 13
0.0
 23
0.0
 33
0.0
 16
1.0
 26
0.0
 36
0.0
 17
0.0
 27
1.0
 37
0.0
 76
1
330
17
  0
LAYOUT
  5
1E
330
D
100
AcDbPlotSettings
  1

  4
A3
  6

 40
7.5
 41
20.0
 42
7.5
 43
20.0
 44
420.0
 45
297.0
 46
0.0
 47
0.0
 48
0.0
 49
0.0
140
0.0
141
0.0
142
1.0
143
1.0
 70
0
 72
1
 73
0
 74
5
  7

 75
16
 76
0
 77
2
 78
300
147
1.0
148
0.0
149
0.0
100
AcDbLayout
  1
Layout1
 70
1
 71
1
 10
0.0
 20
0.0
 11
420.0
 21
297.0
 12
0.0
 22
0.0
 32
0.0
 14
1e+20
 24
1e+20
 34
1e+20
 15
-1e+20
 25
-1e+20
 35
-1e+20
146
0.0
 13
0.0
 23
0.0
 33
0.0
 16
1.0
 26
0.0
 36
0.0
 17
0.0
 27
1.0
 37
0.0
 76
1
330
1B
  0
MATERIAL
  5
1F
102
{ACAD_REACTORS
330
E
102
}
330
E
100
AcDbMaterial
  1
ByBlock
  2

 70
0
 40
1.0
 71
1
 41
1.0
 91
-1023410177
 42
1.0
 72
1
  3

 73
1
 74
1
 75
1
 44
0.5
 73
0
 45
1.0
 46
1.0
 77
1
  4

 78
1
 79
1
170
1
 48
1.0
171
1
  6

172
1
173
1
174
1
140
1.0
141
1.0
175
1
  7

176
1
177
1
178
1
143
1.0
179
1
  8

270
1
271
1
272
1
145
1.0
146
1.0
273
1
  9

274
1
275
1
276
1
 42
1.0
 72
1
  3

 73
1
 74
1
 75
1
 94
63
  0
MATERIAL
  5
20
102
{ACAD_REACTORS
330
E
102
}
330
E
100
AcDbMaterial
  1
ByLayer
  2

 70
0
 40
1.0
 71
1
 41
1.0
 91
-1023410177
 42
1.0
 72
1
  3

 73
1
 74
1
 75
1
 44
0.5
 73
0
 45
1.0
 46
1.0
 77
1
  4

 78
1
 79
1
170
1
 48
1.0
171
1
  6

172
1
173
1
174
1
140
1.0
141
1.0
175
1
  7

176
1
177
1
178
1
143
1.0
179
1
  8

270
1
271
1
272
1
145
1.0
146
1.0
273
1
  9

274
1
275
1
276
1
 42
1.0
 72
1
  3

 73
1
 74
1
 75
1
 94
63
  0
MATERIAL
  5
21
102
{ACAD_REACTORS
330
E
102
}
330
E
100
AcDbMaterial
  1
Global
  2

 70
0
 40
1.0
 71
1
 41
1.0
 91
-1023410177
 42
1.0
 72
1
  3

 73
1
 74
1
 75
1
 44
0.5
 73
0
 45
1.0
 46
1.0
 77
1
  4

 78
1
 79
1
170
1
 48
1.0
171
1
  6

172
1
173
1
174
1
140
1.0
141
1.0
175
1
  7

176
1
177
1
178
1
143
1.0
179
1
  8

270
1
271
1
272
1
145
1.0
146
1.0
273
1
  9

274
1
275
1
276
1
 42
1.0
 72
1
  3

 73
1
 74
1
 75
1
 94
63
  0
MLINESTYLE
  5
22
102
{ACAD_REACTORS
330
10
102
}
330
10
100
AcDbMlineStyle
  2
Standard
 70
0
  3

 62
256
 51
90.0
 52
90.0
 71
2
 49
0.5
 62
256
  6
BYLAYER
 49
-0.5
 62
256
  6
BYLAYER
  0
MLEADERSTYLE
  5
2C
102
{ACAD_REACTORS
330
F
102
}
330
F
100
AcDbMLeaderStyle
179
2
170
2
171
1
172
0
 90
2
 40
0.0
 41
0.0
173
1
 91
-1056964608
 92
-2
290
1
 42
2.0
291
1
 43
8.0
  3
Standard
 44
4.0
300

342
29
174
1
175
1
176
0
178
1
 93
-1056964608
 45
4.0
292
0
297
0
 46
4.0
 94
-1056964608
 47
1.0
 49
1.0
140
1.0
294
1
141
0.0
177
0
142
1.0
295
0
296
0
143
3.75
271
0
272
9
273
9
  0
DICTIONARY
  5
2D
330
A
100
AcDbDictionary
280
1
281
1
  3
CREATED_BY_EZDXF
350
2E
  3
WRITTEN_BY_EZDXF
350
146
  0
DICTIONARYVAR
  5
2E
330
2D
100
DictionaryVariables
280
0
  1
1.4.4 @ 2026-05-14T09:46:20.152021+00:00
  0
DICTIONARYVAR
  5
146
330
2D
100
DictionaryVariables
280
0
  1
1.4.4 @ 2026-05-14T09:46:20.161867+00:00
  0
ENDSEC
  0
EOF
